<svg width="4" height="13" viewBox="0 0 4 13" fill="none" xmlns="http://www.w3.org/2000/svg">
    <path d="M2.00241 2.64104C2.22848 2.64104 2.44948 2.57401 2.63745 2.44841C2.82542 2.32281 2.97193 2.1443 3.05845 1.93544C3.14496 1.72658 3.16758 1.49675 3.12348 1.27502C3.07937 1.0533 2.97052 0.849619 2.81067 0.689763C2.65081 0.529907 2.44713 0.421045 2.22541 0.376941C2.00368 0.332837 1.77386 0.355485 1.56499 0.441998C1.35613 0.528511 1.17762 0.675014 1.05202 0.862984C0.926425 1.05095 0.859375 1.27195 0.859375 1.49802C0.859375 1.64812 0.88894 1.79676 0.946383 1.93544C1.00383 2.07412 1.08802 2.20011 1.19416 2.30625C1.3003 2.41239 1.42632 2.49659 1.56499 2.55403C1.70367 2.61148 1.85231 2.64104 2.00241 2.64104V2.64104Z" fill="#6723B2"/>
    <path d="M2.0024 9.99158C1.77633 9.99158 1.55534 10.0586 1.36737 10.1842C1.1794 10.3098 1.03288 10.4883 0.946372 10.6972C0.859858 10.906 0.837239 11.1359 0.881343 11.3576C0.925447 11.5793 1.0343 11.783 1.19415 11.9429C1.35401 12.1027 1.55768 12.2116 1.77941 12.2557C2.00114 12.2998 2.23096 12.2771 2.43982 12.1906C2.64869 12.1041 2.8272 11.9576 2.9528 11.7696C3.07839 11.5817 3.14544 11.3607 3.14544 11.1346C3.14544 10.8315 3.02502 10.5407 2.81066 10.3264C2.5963 10.112 2.30555 9.99158 2.0024 9.99158Z" fill="#6723B2"/>
</svg>
