<svg width="13" height="13" viewBox="0 0 13 13" fill="none" xmlns="http://www.w3.org/2000/svg">
	<g clip-path="url(#clip0_230_848)">
		<path d="M6.5 13C10.0899 13 13 10.0899 13 6.5C13 2.91015 10.0899 0 6.5 0C2.91015 0 0 2.91015 0 6.5C0 10.0899 2.91015 13 6.5 13Z" fill="#F6D738"/>
		<path d="M6.49999 12.0164C9.54668 12.0164 12.0165 9.54658 12.0165 6.4999C12.0165 3.45322 9.54668 0.983398 6.49999 0.983398C3.45331 0.983398 0.98349 3.45322 0.98349 6.4999C0.98349 9.54658 3.45331 12.0164 6.49999 12.0164Z" fill="#F3CC30"/>
		<path d="M9.38661 1.79102C9.95485 2.67775 10.2561 3.7092 10.2544 4.76239C10.2544 7.8091 7.78464 10.2789 4.73793 10.2789C3.71876 10.2804 2.71926 9.99831 1.85132 9.46409C2.34986 10.2448 3.03713 10.8873 3.84963 11.3323C4.66213 11.7772 5.57366 12.0101 6.5 12.0096C9.5467 12.0096 12.0165 9.53984 12.0165 6.49313C12.0171 5.54983 11.7756 4.62217 11.3151 3.79889C10.8547 2.97562 10.1907 2.28428 9.38661 1.79102Z" fill="#EDBD31"/>
		<path d="M1.94979 7.00482C1.94979 4.31536 4.13011 2.13504 6.81957 2.13504C7.56575 2.13446 8.30204 2.30565 8.97142 2.63535C9.64081 2.96505 10.2253 3.44442 10.6797 4.03632C10.2529 3.29367 9.6378 2.67677 8.89639 2.2479C8.15497 1.81903 7.31352 1.59339 6.45701 1.59375C3.76754 1.59375 1.58661 3.77386 1.58661 6.46333C1.58506 7.53732 1.94013 8.58144 2.59611 9.43183C2.17123 8.69364 1.94831 7.85655 1.94979 7.00482Z" fill="#F7DB5E"/>
	</g>
	<defs>
		<clipPath id="clip0_230_848">
			<rect width="13" height="13" fill="white"/>
		</clipPath>
	</defs>
</svg>
