<svg width="21" height="22" viewBox="0 0 21 22" fill="none" xmlns="http://www.w3.org/2000/svg">
    <path d="M20.7558 6.61391V4.04995C20.7558 1.70137 15.8825 0.631348 11.3546 0.631348C6.82667 0.631348 1.95344 1.70137 1.95344 4.04995V6.61391C1.95344 7.03869 2.07822 7.43008 2.28675 7.79418C0.937251 8.37533 0.244141 9.12403 0.244141 10.0325V12.5965C0.244141 13.6161 0.901362 14.4605 1.95344 15.1245V16.8697C1.95344 19.6456 6.79674 21.143 11.3546 21.143C15.9125 21.143 20.7558 19.6456 20.7558 16.8697V14.3058C20.7558 13.481 20.1797 12.7811 19.0465 12.2187V10.0325C19.0465 9.81459 18.9995 9.54622 18.8516 9.25819C20.0165 8.57789 20.7558 7.6942 20.7558 6.61391ZM17.3372 12.5366L17.3218 12.6606C17.2115 13.5733 14.9159 14.8023 11.2854 15.0955C11.2392 15.0989 11.1905 15.1006 11.1444 15.104C10.9298 15.1203 10.7136 15.1348 10.4897 15.1434C10.2145 15.1545 9.93333 15.1605 9.6453 15.1605C7.17366 15.1605 4.80542 14.7041 3.30807 13.94L3.05168 13.8093C2.34317 13.405 1.95344 12.9708 1.95344 12.5965V12.111C1.96371 12.1161 1.97735 12.1204 1.98762 12.1264C2.19615 12.229 2.41837 12.3255 2.65511 12.4153C2.71324 12.4383 2.77734 12.458 2.83714 12.4794C3.02259 12.546 3.21405 12.6101 3.41319 12.67C3.50208 12.6965 3.59351 12.7212 3.68499 12.7469C3.87303 12.7982 4.06532 12.8468 4.26188 12.893C4.35419 12.9144 4.44562 12.9366 4.53964 12.9563C4.78322 13.0084 5.03277 13.0563 5.28746 13.0999C5.33616 13.1084 5.38148 13.1178 5.43018 13.1264C5.73444 13.1759 6.04554 13.2195 6.36091 13.2571C6.45322 13.2682 6.54636 13.2776 6.63867 13.2879C6.86944 13.3127 7.10017 13.3357 7.33437 13.3545C7.44545 13.3639 7.55658 13.3725 7.66855 13.3801C7.89844 13.3955 8.12834 13.4092 8.35911 13.4194C8.46081 13.4237 8.56167 13.4288 8.66337 13.4331C8.99155 13.4442 9.31888 13.4511 9.64535 13.4511C9.97181 13.4511 10.2991 13.4442 10.6274 13.4331C10.7291 13.4289 10.8299 13.4237 10.9316 13.4194C11.1624 13.4092 11.3923 13.3955 11.6222 13.3801C11.7341 13.3725 11.8452 13.3639 11.9564 13.3545C12.1906 13.3357 12.4213 13.3127 12.6521 13.2879C12.7444 13.2776 12.8375 13.2682 12.9298 13.2571C13.2452 13.2195 13.5563 13.1759 13.8606 13.1264C13.9093 13.1178 13.9546 13.1084 14.0033 13.0999C14.258 13.0563 14.5075 13.0084 14.7511 12.9563C14.8451 12.9366 14.9365 12.9144 15.0289 12.893C15.2254 12.8468 15.4177 12.7982 15.6057 12.7469C15.6972 12.7212 15.7878 12.6965 15.8775 12.67C16.0767 12.6101 16.2681 12.546 16.4536 12.4794C16.5134 12.458 16.5775 12.4383 16.6356 12.4153C16.8724 12.3255 17.0946 12.2289 17.3031 12.1264C17.3134 12.1204 17.3262 12.1161 17.3373 12.111V12.5366H17.3372ZM19.0465 6.61391C19.0465 7.07028 18.4747 7.61641 17.4406 8.08818L17.1423 8.21041C15.6415 8.8249 13.5323 9.17786 11.3546 9.17786C11.0025 9.17786 10.6547 9.16676 10.3102 9.14965C10.2564 9.14623 10.2034 9.14281 10.1495 9.13938C9.82137 9.11973 9.49574 9.09411 9.17867 9.05905H9.17353C7.07367 8.82573 5.26693 8.26508 4.2832 7.50186L4.10372 7.36256C3.81999 7.10445 3.6627 6.84722 3.6627 6.61391V6.12845C3.67297 6.13358 3.68662 6.13784 3.69688 6.14385C3.90541 6.24642 4.12763 6.34299 4.36437 6.43271C4.4225 6.45579 4.4866 6.47544 4.5464 6.49681C4.73185 6.56345 4.92331 6.62755 5.12245 6.68739C5.21134 6.71389 5.30277 6.73868 5.39425 6.7643C5.58229 6.81559 5.77458 6.86429 5.97114 6.91045C6.06345 6.93181 6.15488 6.95401 6.2489 6.97371C6.49248 7.02583 6.74204 7.0737 6.99672 7.11731C7.04542 7.12586 7.09074 7.13525 7.13944 7.14381C7.4437 7.19338 7.75481 7.23695 8.07017 7.27455C8.16248 7.28565 8.25562 7.29508 8.34793 7.30531C8.5787 7.33009 8.80943 7.35317 9.04363 7.37195C9.15471 7.38134 9.26584 7.38989 9.37781 7.39757C9.6077 7.41297 9.8376 7.42662 10.0684 7.43688C10.1701 7.44114 10.2709 7.44627 10.3726 7.45057C10.7008 7.46167 11.0281 7.46852 11.3546 7.46852C11.6812 7.46852 12.0084 7.46167 12.3366 7.45057C12.4383 7.44631 12.5392 7.44118 12.6409 7.43688C12.8717 7.42662 13.1015 7.41297 13.3314 7.39757C13.4434 7.38989 13.5545 7.38134 13.6656 7.37195C13.8998 7.35313 14.1306 7.33009 14.3613 7.30531C14.4536 7.29504 14.5468 7.28565 14.6391 7.27455C14.9544 7.23695 15.2656 7.19334 15.5698 7.14381C15.6185 7.13525 15.6638 7.12586 15.7125 7.11731C15.9672 7.07374 16.2168 7.02587 16.4604 6.97371C16.5544 6.95406 16.6458 6.93181 16.7381 6.91045C16.9347 6.86429 17.127 6.81559 17.315 6.7643C17.4064 6.73868 17.497 6.71389 17.5868 6.68739C17.7859 6.62755 17.9774 6.56345 18.1629 6.49681C18.2227 6.47544 18.2868 6.45579 18.3449 6.43271C18.5816 6.34299 18.8038 6.24638 19.0124 6.14385C19.0226 6.13788 19.0355 6.13358 19.0466 6.12845V6.61391H19.0465Z" fill="#847A84"/>
</svg>
