<svg width="21" height="21" viewBox="0 0 21 21" fill="none" xmlns="http://www.w3.org/2000/svg">
    <path d="M20.9432 17.2099L16.6423 1.34105C16.5279 0.920487 16.2492 0.562038 15.8673 0.344527C15.4855 0.127017 15.0319 0.068255 14.6062 0.181164L11.3962 1.03311L11.2923 1.06391C11.1374 0.863207 10.9378 0.700467 10.709 0.588318C10.4802 0.47617 10.2283 0.417631 9.97293 0.417246H6.64862C6.35618 0.418023 6.06926 0.495984 5.81754 0.643064C5.56582 0.495984 5.27891 0.418023 4.98647 0.417246H1.66216C1.22132 0.417246 0.798549 0.590275 0.486834 0.898268C0.175119 1.20626 0 1.62399 0 2.05956V18.4827C0 18.9183 0.175119 19.336 0.486834 19.644C0.798549 19.952 1.22132 20.125 1.66216 20.125H4.98647C5.27891 20.1242 5.56582 20.0463 5.81754 19.8992C6.06926 20.0463 6.35618 20.1242 6.64862 20.125H9.97293C10.4138 20.125 10.8365 19.952 11.1483 19.644C11.46 19.336 11.6351 18.9183 11.6351 18.4827V8.25929L14.5231 18.9035C14.6172 19.2543 14.8262 19.5644 15.1175 19.7854C15.4089 20.0063 15.766 20.1258 16.1333 20.125C16.2767 20.1225 16.4194 20.1053 16.5592 20.0737L19.7693 19.2217C20.1949 19.1087 20.5577 18.8333 20.7778 18.456C20.998 18.0787 21.0574 17.6305 20.9432 17.2099ZM15.0321 1.77215L15.6866 4.14324L12.4766 4.99519L11.8221 2.6241L15.0321 1.77215ZM9.97293 2.05956V14.3769H6.64862V2.05956H9.97293ZM4.98647 2.05956V4.52303H1.66216V2.05956H4.98647ZM9.97293 18.4827H6.64862V16.0192H9.97293V18.4827ZM19.3433 17.6307L16.1333 18.4827L15.4788 16.1013L18.6992 15.2494L19.3433 17.6307Z" fill="#857A85"/>
</svg>
