<svg width="30" height="30" viewBox="0 0 30 30" fill="none" xmlns="http://www.w3.org/2000/svg">
<path d="M25.6061 4.39394C22.7715 1.55934 19.0088 0 15 0C10.9912 0 7.22854 1.55934 4.39394 4.39394C1.55934 7.22854 0 10.9912 0 15C0 19.0088 1.55934 22.7715 4.39394 25.6061C7.22854 28.4407 10.9912 30 15 30C19.0088 30 22.7715 28.4407 25.6061 25.6061C28.4407 22.7715 30 19.0088 30 15C30 10.9912 28.4407 7.22854 25.6061 4.39394ZM24.4003 24.4003C21.8876 26.9129 18.548 28.2955 15 28.2955C11.452 28.2955 8.11237 26.9129 5.59975 24.4003C0.416667 19.2172 0.416667 10.7828 5.59975 5.59975C8.11237 3.08712 11.452 1.70455 15 1.70455C18.548 1.70455 21.8876 3.08712 24.4003 5.59975C29.5833 10.7828 29.5833 19.2172 24.4003 24.4003Z" fill="white"/>
<path d="M21.6098 8.39011C21.2752 8.05551 20.7386 8.05551 20.404 8.39011L15 13.7941L9.59592 8.39011C9.26132 8.05551 8.7247 8.05551 8.39011 8.39011C8.05551 8.7247 8.05551 9.26132 8.39011 9.59592L13.7941 15L8.39011 20.404C8.05551 20.7386 8.05551 21.2752 8.39011 21.6098C8.55425 21.7739 8.77521 21.8623 8.98985 21.8623C9.2045 21.8623 9.42546 21.7803 9.5896 21.6098L14.9936 16.2058L20.3977 21.6098C20.5618 21.7739 20.7828 21.8623 20.9974 21.8623C21.2184 21.8623 21.433 21.7803 21.5972 21.6098C21.9318 21.2752 21.9318 20.7386 21.5972 20.404L16.2058 15L21.6098 9.59592C21.9444 9.26132 21.9444 8.7247 21.6098 8.39011Z" fill="white"/>
</svg>
