<svg width="400" height="83" viewBox="0 0 400 83" fill="none" xmlns="http://www.w3.org/2000/svg">
    <g clip-path="url(#clip0_783_1870)">
        <path d="M386.061 4.64648H13.9394C8.80707 4.64648 4.64648 8.80707 4.64648 13.9394V68.698C4.64648 73.8303 8.80707 77.9909 13.9394 77.9909H386.061C391.193 77.9909 395.354 73.8303 395.354 68.698V13.9394C395.354 8.80707 391.193 4.64648 386.061 4.64648Z" fill="#293650"/>
        <path d="M13.9394 0.714079H386.061C393.365 0.714079 399.286 6.63525 399.286 13.9394V68.698C399.286 76.0021 393.365 81.9233 386.061 81.9233H13.9394C6.63525 81.9233 0.714079 76.0021 0.714079 68.698V13.9394C0.714079 6.63525 6.63525 0.714079 13.9394 0.714079Z" fill="#221F24" stroke="url(#paint0_linear_783_1870)" stroke-width="1.42816"/>
        <g style="mix-blend-mode:screen" opacity="0.1">
            <path d="M386.065 0.929292C389.516 0.929292 392.825 2.29999 395.265 4.73986C397.705 7.17972 399.075 10.4889 399.075 13.9394V68.6933C399.075 72.1438 397.705 75.453 395.265 77.8928C392.825 80.3327 389.516 81.7034 386.065 81.7034H13.9394C10.4889 81.7034 7.17973 80.3327 4.73987 77.8928C2.3 75.453 0.929293 72.1438 0.929293 68.6933V13.9394C0.929293 10.4889 2.3 7.17972 4.73987 4.73986C7.17973 2.29999 10.4889 0.929292 13.9394 0.929292H386.065M386.065 0H13.9394C10.2424 0 6.6969 1.46861 4.08276 4.08275C1.46861 6.69689 0 10.2424 0 13.9394V68.6933C0 72.3903 1.46861 75.9358 4.08276 78.5499C6.6969 81.1641 10.2424 82.6327 13.9394 82.6327H386.065C389.762 82.6327 393.308 81.1641 395.922 78.5499C398.536 75.9358 400.005 72.3903 400.005 68.6933V13.9394C400.005 10.2424 398.536 6.69689 395.922 4.08275C393.308 1.46861 389.762 0 386.065 0V0Z" fill="url(#paint1_linear_783_1870)"/>
        </g>
        <g style="mix-blend-mode:multiply" opacity="0.4">
            <path d="M386.065 0.929292C389.516 0.929292 392.825 2.29999 395.265 4.73986C397.705 7.17972 399.075 10.4889 399.075 13.9394V68.6933C399.075 72.1438 397.705 75.453 395.265 77.8928C392.825 80.3327 389.516 81.7034 386.065 81.7034H13.9394C10.4889 81.7034 7.17973 80.3327 4.73987 77.8928C2.3 75.453 0.929293 72.1438 0.929293 68.6933V13.9394C0.929293 10.4889 2.3 7.17972 4.73987 4.73986C7.17973 2.29999 10.4889 0.929292 13.9394 0.929292H386.065M386.065 0H13.9394C10.2424 0 6.6969 1.46861 4.08276 4.08275C1.46861 6.69689 0 10.2424 0 13.9394V68.6933C0 72.3903 1.46861 75.9358 4.08276 78.5499C6.6969 81.1641 10.2424 82.6327 13.9394 82.6327H386.065C389.762 82.6327 393.308 81.1641 395.922 78.5499C398.536 75.9358 400.005 72.3903 400.005 68.6933V13.9394C400.005 10.2424 398.536 6.69689 395.922 4.08275C393.308 1.46861 389.762 0 386.065 0V0Z" fill="url(#paint2_linear_783_1870)"/>
        </g>
    </g>
    <defs>
        <linearGradient id="paint0_linear_783_1870" x1="200" y1="0" x2="200" y2="82.6373" gradientUnits="userSpaceOnUse">
            <stop stop-color="#6723B2"/>
            <stop offset="0.0001" stop-color="#6723B2"/>
            <stop offset="1" stop-color="#7928D3" stop-opacity="0"/>
        </linearGradient>
        <linearGradient id="paint1_linear_783_1870" x1="200.002" y1="0" x2="200.002" y2="82.6327" gradientUnits="userSpaceOnUse">
            <stop stop-color="white"/>
            <stop offset="1"/>
        </linearGradient>
        <linearGradient id="paint2_linear_783_1870" x1="200.002" y1="0" x2="200.002" y2="82.6327" gradientUnits="userSpaceOnUse">
            <stop stop-color="white"/>
            <stop offset="1"/>
        </linearGradient>
        <clipPath id="clip0_783_1870">
            <rect width="400" height="82.6373" fill="white"/>
        </clipPath>
    </defs>
</svg>
