<svg width="106" height="30" viewBox="0 0 106 30" fill="none" xmlns="http://www.w3.org/2000/svg">
    <path d="M10.2004 30.2098C9.59414 30.2098 8.99386 30.0902 8.4339 29.8579C7.87393 29.6256 7.36528 29.2852 6.93707 28.856C6.50886 28.4269 6.1695 27.9175 5.93841 27.3571C5.70733 26.7966 5.58906 26.196 5.59038 25.5898L5.59038 19.5398L0.000380803 15.2998L5.59038 10.8598L5.59038 4.65979C5.59038 3.43714 6.07607 2.2646 6.94061 1.40005C7.80516 0.535511 8.97773 0.0498035 10.2004 0.0498036L101.04 0.0498045C102.263 0.0498045 103.436 0.535512 104.3 1.40005C105.165 2.2646 105.65 3.43714 105.65 4.65979L105.65 25.6598C105.652 26.266 105.533 26.8666 105.302 27.427C105.071 27.9875 104.732 28.4969 104.304 28.926C103.875 29.3552 103.367 29.6956 102.807 29.9279C102.247 30.1602 101.647 30.2798 101.04 30.2798L10.2004 30.2098Z" fill="url(#paint0_linear_783_1647)"/>
    <defs>
        <linearGradient id="paint0_linear_783_1647" x1="115.122" y1="26.9603" x2="78.3078" y2="-44.0159" gradientUnits="userSpaceOnUse">
            <stop stop-color="#FF0FBD"/>
            <stop offset="1" stop-color="#FF8AEE"/>
        </linearGradient>
    </defs>
</svg>
