<svg width="281" height="58" viewBox="0 0 281 58" fill="none" xmlns="http://www.w3.org/2000/svg">
    <path d="M270.321 3.25342H9.76084C6.16716 3.25342 3.25391 6.16667 3.25391 9.76035V48.1024C3.25391 51.6961 6.16716 54.6094 9.76084 54.6094H270.321C273.915 54.6094 276.828 51.6961 276.828 48.1024V9.76035C276.828 6.16667 273.915 3.25342 270.321 3.25342Z" fill="#293650"/>
    <path d="M9.76039 0.5H270.321C275.435 0.5 279.581 4.64602 279.581 9.76039V48.1025C279.581 53.2169 275.435 57.3629 270.321 57.3629H9.76039C4.64602 57.3629 0.5 53.2169 0.5 48.1025V9.76039C0.5 4.64602 4.64602 0.5 9.76039 0.5Z" fill="#221F24" stroke="url(#paint0_linear_853_97)"/>
    <g style="mix-blend-mode:screen" opacity="0.1">
        <path d="M270.324 0.650693C272.74 0.650693 275.057 1.61046 276.765 3.31886C278.474 5.02726 279.434 7.34435 279.434 9.76039V48.0992C279.434 50.5153 278.474 52.8324 276.765 54.5408C275.057 56.2492 272.74 57.2089 270.324 57.2089H9.76039C7.34435 57.2089 5.02727 56.2492 3.31887 54.5408C1.61047 52.8324 0.650693 50.5153 0.650693 48.0992V9.76039C0.650693 7.34435 1.61047 5.02726 3.31887 3.31886C5.02727 1.61046 7.34435 0.650693 9.76039 0.650693H270.324M270.324 0H9.76039C7.17178 0 4.68918 1.02832 2.85876 2.85875C1.02833 4.68918 0 7.17177 0 9.76039V48.0992C0 50.6878 1.02833 53.1704 2.85876 55.0009C4.68918 56.8313 7.17178 57.8596 9.76039 57.8596H270.324C272.912 57.8596 275.395 56.8313 277.226 55.0009C279.056 53.1704 280.084 50.6878 280.084 48.0992V9.76039C280.084 7.17177 279.056 4.68918 277.226 2.85875C275.395 1.02832 272.912 0 270.324 0V0Z" fill="url(#paint1_linear_853_97)"/>
    </g>
    <g style="mix-blend-mode:multiply" opacity="0.4">
        <path d="M270.324 0.650693C272.74 0.650693 275.057 1.61046 276.765 3.31886C278.474 5.02726 279.434 7.34435 279.434 9.76039V48.0992C279.434 50.5153 278.474 52.8324 276.765 54.5408C275.057 56.2492 272.74 57.2089 270.324 57.2089H9.76039C7.34435 57.2089 5.02727 56.2492 3.31887 54.5408C1.61047 52.8324 0.650693 50.5153 0.650693 48.0992V9.76039C0.650693 7.34435 1.61047 5.02726 3.31887 3.31886C5.02727 1.61046 7.34435 0.650693 9.76039 0.650693H270.324M270.324 0H9.76039C7.17178 0 4.68918 1.02832 2.85876 2.85875C1.02833 4.68918 0 7.17177 0 9.76039V48.0992C0 50.6878 1.02833 53.1704 2.85876 55.0009C4.68918 56.8313 7.17178 57.8596 9.76039 57.8596H270.324C272.912 57.8596 275.395 56.8313 277.226 55.0009C279.056 53.1704 280.084 50.6878 280.084 48.0992V9.76039C280.084 7.17177 279.056 4.68918 277.226 2.85875C275.395 1.02832 272.912 0 270.324 0V0Z" fill="url(#paint2_linear_853_97)"/>
    </g>
    <defs>
        <linearGradient id="paint0_linear_853_97" x1="140.041" y1="0" x2="140.041" y2="57.8629" gradientUnits="userSpaceOnUse">
            <stop stop-color="#6723B2"/>
            <stop offset="1" stop-color="#7928D3" stop-opacity="0"/>
        </linearGradient>
        <linearGradient id="paint1_linear_853_97" x1="140.042" y1="0" x2="140.042" y2="57.8596" gradientUnits="userSpaceOnUse">
            <stop stop-color="white"/>
            <stop offset="1"/>
        </linearGradient>
        <linearGradient id="paint2_linear_853_97" x1="140.042" y1="0" x2="140.042" y2="57.8596" gradientUnits="userSpaceOnUse">
            <stop stop-color="white"/>
            <stop offset="1"/>
        </linearGradient>
    </defs>
</svg>
