<svg width="18" height="20" viewBox="0 0 18 20" fill="none" xmlns="http://www.w3.org/2000/svg">
    <path d="M13.125 10.8184C12.4979 11.1804 11.7866 11.371 11.0625 11.371C10.3384 11.371 9.62708 11.1804 9 10.8184C8.37292 11.1804 7.66159 11.371 6.9375 11.371C6.21341 11.371 5.50208 11.1804 4.875 10.8184C4.24935 11.1843 3.53732 11.3766 2.8125 11.3752C2.34358 11.3765 1.87812 11.295 1.4375 11.1346V17.5627C1.4375 18.1097 1.6548 18.6343 2.04159 19.0211C2.42839 19.4079 2.95299 19.6252 3.5 19.6252H6.25V14.1252C6.25 13.9429 6.32243 13.768 6.45136 13.6391C6.5803 13.5102 6.75516 13.4377 6.9375 13.4377H11.0625C11.2448 13.4377 11.4197 13.5102 11.5486 13.6391C11.6776 13.768 11.75 13.9429 11.75 14.1252V19.6252H14.5C15.047 19.6252 15.5716 19.4079 15.9584 19.0211C16.3452 18.6343 16.5625 18.1097 16.5625 17.5627V11.1346C16.1219 11.295 15.6564 11.3765 15.1875 11.3752C14.4627 11.3766 13.7506 11.1843 13.125 10.8184Z" fill="#FFFFFF"/>
    <path d="M15.82 0.794375C15.7674 0.67011 15.6793 0.564084 15.5669 0.489509C15.4544 0.414934 15.3225 0.37511 15.1875 0.375H2.81251C2.67756 0.37511 2.54563 0.414934 2.43316 0.489509C2.32068 0.564084 2.23265 0.67011 2.18001 0.794375L0.296265 5.1875H17.7038L15.82 0.794375Z" fill="#FFFFFF"/>
    <path d="M4.1875 9.62875V6.5625H0.0625V7.25C0.0629946 7.73249 0.190422 8.20635 0.431987 8.62401C0.673551 9.04167 1.02075 9.38843 1.43872 9.62946C1.85669 9.87048 2.33072 9.9973 2.8132 9.99718C3.29569 9.99706 3.76965 9.86999 4.1875 9.62875Z" fill="#FFFFFF"/>
    <path d="M6.9375 10C7.42048 9.99914 7.89472 9.8711 8.3125 9.62875V6.5625H5.5625V9.62875C5.98028 9.8711 6.45452 9.99914 6.9375 10Z" fill="#FFFFFF"/>
    <path d="M11.0625 10C11.5455 9.99914 12.0197 9.8711 12.4375 9.62875V6.5625H9.6875V9.62875C10.1053 9.8711 10.5795 9.99914 11.0625 10Z" fill="#FFFFFF"/>
    <path d="M13.8125 6.5625V9.62875C14.2303 9.86999 14.7043 9.99706 15.1868 9.99718C15.6693 9.9973 16.1433 9.87048 16.5613 9.62946C16.9793 9.38843 17.3264 9.04167 17.568 8.62401C17.8096 8.20635 17.937 7.73249 17.9375 7.25V6.5625H13.8125Z" fill="#FFFFFF"/>
</svg>
