<svg width="237" height="43" viewBox="0 0 237 43" fill="none" xmlns="http://www.w3.org/2000/svg">
    <g clip-path="url(#clip0_856_1178)">
        <path d="M228.506 2H8.49431C5.45989 2 3 4.21234 3 6.9414V36.0586C3 38.7877 5.45989 41 8.49431 41H228.506C231.54 41 234 38.7877 234 36.0586V6.9414C234 4.21234 231.54 2 228.506 2Z" fill="#293650"/>
        <path d="M8.25909 0.5H228.741C233.089 0.5 236.5 3.58258 236.5 7.2533V35.7467C236.5 39.4174 233.089 42.5 228.741 42.5H8.25909C3.91088 42.5 0.5 39.4174 0.5 35.7467V7.2533C0.5 3.58258 3.91088 0.5 8.25909 0.5Z" fill="#221F24" stroke="url(#paint0_linear_856_1178)"/>
        <g style="mix-blend-mode:screen" opacity="0.1">
            <path d="M228.741 0.483581C230.785 0.483581 232.746 1.19686 234.192 2.4665C235.637 3.73615 236.449 5.45816 236.449 7.25371V35.7463C236.449 37.5418 235.637 39.2638 234.192 40.5335C232.746 41.8031 230.785 42.5164 228.741 42.5164H8.25899C6.2146 42.5164 4.25394 41.8031 2.80834 40.5335C1.36273 39.2638 0.550599 37.5418 0.550599 35.7463V7.25371C0.550599 5.45816 1.36273 3.73615 2.80834 2.4665C4.25394 1.19686 6.2146 0.483581 8.25899 0.483581H228.741M228.741 0H8.25899C6.06857 0 3.96787 0.764226 2.419 2.12456C0.870143 3.4849 0 5.3299 0 7.25371V35.7463C0 37.6701 0.870143 39.5151 2.419 40.8754C3.96787 42.2358 6.06857 43 8.25899 43H228.741C230.931 43 233.032 42.2358 234.581 40.8754C236.13 39.5151 237 37.6701 237 35.7463V7.25371C237 5.3299 236.13 3.4849 234.581 2.12456C233.032 0.764226 230.931 0 228.741 0V0Z" fill="url(#paint1_linear_856_1178)"/>
        </g>
        <g style="mix-blend-mode:multiply" opacity="0.4">
            <path d="M228.741 0.483581C230.785 0.483581 232.746 1.19686 234.192 2.4665C235.637 3.73615 236.449 5.45816 236.449 7.25371V35.7463C236.449 37.5418 235.637 39.2638 234.192 40.5335C232.746 41.8031 230.785 42.5164 228.741 42.5164H8.25899C6.2146 42.5164 4.25394 41.8031 2.80834 40.5335C1.36273 39.2638 0.550599 37.5418 0.550599 35.7463V7.25371C0.550599 5.45816 1.36273 3.73615 2.80834 2.4665C4.25394 1.19686 6.2146 0.483581 8.25899 0.483581H228.741M228.741 0H8.25899C6.06857 0 3.96787 0.764226 2.419 2.12456C0.870143 3.4849 0 5.3299 0 7.25371V35.7463C0 37.6701 0.870143 39.5151 2.419 40.8754C3.96787 42.2358 6.06857 43 8.25899 43H228.741C230.931 43 233.032 42.2358 234.581 40.8754C236.13 39.5151 237 37.6701 237 35.7463V7.25371C237 5.3299 236.13 3.4849 234.581 2.12456C233.032 0.764226 230.931 0 228.741 0V0Z" fill="url(#paint2_linear_856_1178)"/>
        </g>
    </g>
    <defs>
        <linearGradient id="paint0_linear_856_1178" x1="118.5" y1="0" x2="118.5" y2="43" gradientUnits="userSpaceOnUse">
            <stop stop-color="#6723B2"/>
            <stop offset="1" stop-color="#7928D3" stop-opacity="0"/>
        </linearGradient>
        <linearGradient id="paint1_linear_856_1178" x1="118.5" y1="0" x2="118.5" y2="43" gradientUnits="userSpaceOnUse">
            <stop stop-color="white"/>
            <stop offset="1"/>
        </linearGradient>
        <linearGradient id="paint2_linear_856_1178" x1="118.5" y1="0" x2="118.5" y2="43" gradientUnits="userSpaceOnUse">
            <stop stop-color="white"/>
            <stop offset="1"/>
        </linearGradient>
        <clipPath id="clip0_856_1178">
            <rect width="237" height="43" fill="white"/>
        </clipPath>
    </defs>
</svg>
