<svg width="23" height="18" viewBox="0 0 23 18" fill="none" xmlns="http://www.w3.org/2000/svg">
    <g clip-path="url(#clip0_63_594)">
        <path d="M8.90706 7.8106C3.70157 7.8106 4.08613 7.8095 4.00598 7.81261C4.05307 7.63281 4.14665 7.46274 4.28732 7.32207L5.71449 5.8949C6.02289 5.58647 6.49636 5.49681 6.89278 5.6719C7.10565 5.76596 7.35929 5.71849 7.52394 5.55385C7.68858 5.38924 7.73601 5.13559 7.64202 4.92273C7.46693 4.5264 7.55653 4.05286 7.86502 3.7444L9.29216 2.31724C9.71518 1.89427 10.4034 1.89424 10.8265 2.31724L12.612 4.10277C12.1088 4.60636 9.40892 7.30833 8.90706 7.8106Z" fill="#FFFFFF"/>
        <path d="M13.2775 4.76855L16.3198 7.81084H10.2381C10.2491 7.7998 10.4819 7.5668 13.2775 4.76855Z" fill="#FFFFFF"/>
        <path d="M3.67552 12.846C3.27148 12.6896 3.00001 12.2914 3.00001 11.8552V9.83688C3.00001 9.23867 3.48672 8.75195 4.08494 8.75195H6.29413V17.9997H4.08494C3.48672 17.9997 3.00001 17.513 3.00001 16.9147V14.8965C3.00001 14.4603 3.27145 14.062 3.67549 13.9056C3.89253 13.8215 4.03835 13.6086 4.03835 13.3758C4.03835 13.143 3.89253 12.9301 3.67552 12.846Z" fill="#FFFFFF"/>
        <path d="M19 9.83688V11.8552C19 12.2914 18.7285 12.6896 18.3245 12.846C18.1075 12.9301 17.9617 13.143 17.9617 13.3758C17.9617 13.6086 18.1075 13.8215 18.3245 13.9056C18.7286 14.062 19 14.4603 19 14.8965V16.9147C19 17.513 18.5133 17.9997 17.9151 17.9997H7.23529V8.75195H17.9151C18.5133 8.75195 19 9.23864 19 9.83688V9.83688ZM15.7059 10.9408H8.64706V11.882H15.7059V10.9408ZM15.7059 12.8232H8.64706V13.7644H15.7059V12.8232ZM15.7059 14.7056H8.64706V15.6467H15.7059V14.7056Z" fill="#FFFFFF"/>
    </g>
    <defs>
        <clipPath id="clip0_63_594">
            <rect width="16" height="16" fill="white" transform="matrix(-1 0 0 1 19 2)"/>
        </clipPath>
    </defs>
</svg>
