<svg width="280" height="98" viewBox="0 0 280 98" fill="none" xmlns="http://www.w3.org/2000/svg">
<path d="M270.321 3.25342H9.76084C6.16716 3.25342 3.25391 6.16667 3.25391 9.76035V88.1024C3.25391 91.6961 6.16716 94.6094 9.76084 94.6094H270.321C273.915 94.6094 276.828 91.6961 276.828 88.1024V9.76035C276.828 6.16667 273.915 3.25342 270.321 3.25342Z" fill="#293650"/>
<path d="M9.76039 0.5H270.321C275.435 0.5 279.581 4.64602 279.581 9.76039V88.1025C279.581 93.2169 275.435 97.3629 270.321 97.3629H9.76039C4.64602 97.3629 0.5 93.2169 0.5 88.1025V9.76039C0.5 4.64602 4.64602 0.5 9.76039 0.5Z" fill="#221F24" stroke="url(#paint0_linear_886_1035)"/>
<g style="mix-blend-mode:screen" opacity="0.1">
<path d="M270.324 0.650693C272.74 0.650693 275.057 1.61046 276.765 3.31886C278.474 5.02726 279.434 7.34435 279.434 9.76039V88.0992C279.434 90.5153 278.474 92.8324 276.765 94.5408C275.057 96.2492 272.74 97.2089 270.324 97.2089H9.76039C7.34435 97.2089 5.02727 96.2492 3.31887 94.5408C1.61047 92.8324 0.650693 90.5153 0.650693 88.0992V9.76039C0.650693 7.34435 1.61047 5.02726 3.31887 3.31886C5.02727 1.61046 7.34435 0.650693 9.76039 0.650693H270.324ZM270.324 0H9.76039C7.17178 0 4.68918 1.02832 2.85876 2.85875C1.02833 4.68918 0 7.17177 0 9.76039V88.0992C0 90.6878 1.02833 93.1704 2.85876 95.0009C4.68918 96.8313 7.17178 97.8596 9.76039 97.8596H270.324C272.913 97.8596 275.395 96.8313 277.226 95.0009C279.056 93.1704 280.084 90.6878 280.084 88.0992V9.76039C280.084 7.17177 279.056 4.68918 277.226 2.85875C275.395 1.02832 272.913 0 270.324 0Z" fill="url(#paint1_linear_886_1035)"/>
</g>
<defs>
<linearGradient id="paint0_linear_886_1035" x1="140.041" y1="0" x2="140.041" y2="57.8629" gradientUnits="userSpaceOnUse">
<stop stop-color="#6723B2"/>
<stop offset="1" stop-color="#7928D3" stop-opacity="0"/>
</linearGradient>
<linearGradient id="paint1_linear_886_1035" x1="140.042" y1="0" x2="140.042" y2="57.8596" gradientUnits="userSpaceOnUse">
<stop stop-color="white"/>
<stop offset="1"/>
</linearGradient>
</defs>
</svg>
