<svg width="55" height="55" viewBox="0 0 55 55" fill="none" xmlns="http://www.w3.org/2000/svg">
    <path fill-rule="evenodd" clip-rule="evenodd" d="M1.97559 53.9258C1.97559 54.5191 2.45653 55 3.0498 55H32.0026C35.0484 55 38.0145 54.2279 40.6394 52.7925C41.1599 52.5078 41.3511 51.8551 41.0665 51.3345C40.7818 50.814 40.1291 50.6228 39.6086 50.9075C37.2968 52.1717 34.6847 52.8516 32.0026 52.8516H3.0498C2.45653 52.8516 1.97559 53.3325 1.97559 53.9258Z" fill="url(#paint0_linear_814_636)"/>
    <path fill-rule="evenodd" clip-rule="evenodd" d="M16.483 46.9805C16.483 47.5737 16.9639 48.0547 17.5572 48.0547H32.2038C35.474 48.0547 38.6102 46.7554 40.9222 44.4427L47.2199 38.1432C48.0535 37.3094 49.4041 37.3062 50.2416 38.1359C51.0846 38.971 51.0877 40.3323 50.2487 41.1714L46.6462 44.774C46.2267 45.1935 46.2267 45.8737 46.6462 46.2932C47.0657 46.7127 47.7458 46.7127 48.1653 46.2932L51.7679 42.6906C53.4487 41.0098 53.4424 38.2826 51.7536 36.6096C50.0759 34.9476 47.3703 34.954 45.7005 36.6242L39.4028 42.9238C38.3363 43.9906 37.0574 44.7963 35.6654 45.2996C35.8463 44.8256 35.9454 44.3111 35.9454 43.7735C35.9454 41.4094 34.0296 39.4924 31.665 39.4924C29.9812 39.4924 27.7418 39.4923 25.9233 39.4923L23.1582 39.4923L21.5524 37.8568C19.3733 35.6372 16.3935 34.387 13.2831 34.387C10.7373 34.387 8.26237 35.2252 6.24072 36.7722L2.39705 39.7134C1.9259 40.074 1.83622 40.7482 2.19675 41.2193C2.55729 41.6905 3.23151 41.7802 3.70267 41.4196L7.54633 38.4784C9.19313 37.2183 11.2093 36.5354 13.2831 36.5354C15.8169 36.5354 18.2442 37.5539 20.0193 39.362L21.9409 41.3191C22.1429 41.5248 22.4191 41.6407 22.7074 41.6407V40.5665C22.7074 41.6407 22.7074 41.6407 22.7074 41.6407L25.9233 41.6408C27.7418 41.6408 29.9812 41.6408 31.665 41.6408C32.8425 41.6408 33.797 42.5954 33.797 43.7735C33.797 44.9513 32.8423 45.906 31.6645 45.906L17.5572 45.9062C16.9639 45.9063 16.483 46.3872 16.483 46.9805Z" fill="url(#paint1_linear_814_636)"/>
    <g clip-path="url(#clip0_814_636)">
        <path d="M27.5 35C31.6421 35 35 31.6421 35 27.5C35 23.3579 31.6421 20 27.5 20C23.3579 20 20 23.3579 20 27.5C20 31.6421 23.3579 35 27.5 35Z" fill="#F6D738"/>
        <path d="M27.5 33.8652C31.0154 33.8652 33.8652 31.0154 33.8652 27.5C33.8652 23.9846 31.0154 21.1348 27.5 21.1348C23.9846 21.1348 21.1348 23.9846 21.1348 27.5C21.1348 31.0154 23.9846 33.8652 27.5 33.8652Z" fill="#F3CC30"/>
        <path d="M30.8303 22.0669C31.486 23.0901 31.8336 24.2802 31.8316 25.4954C31.8316 29.0108 28.9819 31.8606 25.4665 31.8606C24.2905 31.8624 23.1372 31.5368 22.1357 30.9204C22.711 31.8213 23.504 32.5627 24.4415 33.076C25.379 33.5894 26.4307 33.8582 27.4996 33.8576C31.015 33.8576 33.8648 31.0078 33.8648 27.4924C33.8655 26.404 33.5868 25.3336 33.0555 24.3837C32.5242 23.4337 31.7581 22.636 30.8303 22.0669V22.0669Z" fill="#EDBD31"/>
        <path d="M22.2501 28.0824C22.2501 24.9792 24.7659 22.4634 27.8691 22.4634C28.7301 22.4628 29.5796 22.6603 30.352 23.0407C31.1244 23.4211 31.7988 23.9743 32.323 24.6572C31.8307 23.8003 31.1209 23.0885 30.2654 22.5937C29.4099 22.0988 28.439 21.8385 27.4507 21.8389C24.3475 21.8389 21.8311 24.3544 21.8311 27.4576C21.8293 28.6968 22.239 29.9016 22.9959 30.8828C22.5056 30.0311 22.2484 29.0652 22.2501 28.0824V28.0824Z" fill="#F7DB5E"/>
    </g>
    <g clip-path="url(#clip1_814_636)">
        <path d="M42.5 23C46.6421 23 50 19.6421 50 15.5C50 11.3579 46.6421 8 42.5 8C38.3579 8 35 11.3579 35 15.5C35 19.6421 38.3579 23 42.5 23Z" fill="#F6D738"/>
        <path d="M42.5 21.8652C46.0154 21.8652 48.8652 19.0154 48.8652 15.5C48.8652 11.9846 46.0154 9.13477 42.5 9.13477C38.9846 9.13477 36.1348 11.9846 36.1348 15.5C36.1348 19.0154 38.9846 21.8652 42.5 21.8652Z" fill="#F3CC30"/>
        <path d="M45.8303 10.0669C46.486 11.0901 46.8336 12.2802 46.8316 13.4954C46.8316 17.0108 43.9819 19.8606 40.4665 19.8606C39.2905 19.8624 38.1372 19.5368 37.1357 18.9204C37.711 19.8213 38.504 20.5627 39.4415 21.076C40.379 21.5894 41.4307 21.8582 42.4996 21.8576C46.015 21.8576 48.8648 19.0078 48.8648 15.4924C48.8655 14.404 48.5868 13.3336 48.0555 12.3837C47.5242 11.4337 46.7581 10.636 45.8303 10.0669V10.0669Z" fill="#EDBD31"/>
        <path d="M37.2501 16.0824C37.2501 12.9792 39.7659 10.4634 42.8691 10.4634C43.7301 10.4628 44.5796 10.6603 45.352 11.0407C46.1244 11.4211 46.7988 11.9743 47.323 12.6572C46.8307 11.8003 46.1209 11.0885 45.2654 10.5937C44.4099 10.0988 43.439 9.83845 42.4507 9.83887C39.3475 9.83887 36.8311 12.3544 36.8311 15.4576C36.8293 16.6968 37.239 17.9016 37.9959 18.8828C37.5056 18.0311 37.2484 17.0652 37.2501 16.0824V16.0824Z" fill="#F7DB5E"/>
    </g>
    <defs>
        <linearGradient id="paint0_linear_814_636" x1="21.587" y1="55" x2="21.587" y2="50.7755" gradientUnits="userSpaceOnUse">
            <stop stop-color="#FF10BE"/>
            <stop offset="1" stop-color="#FF67F2"/>
        </linearGradient>
        <linearGradient id="paint1_linear_814_636" x1="27.5" y1="48.0547" x2="27.5" y2="34.387" gradientUnits="userSpaceOnUse">
            <stop stop-color="#FF10BE"/>
            <stop offset="1" stop-color="#FF67F2"/>
        </linearGradient>
        <clipPath id="clip0_814_636">
            <rect width="15" height="15" fill="white" transform="translate(20 20)"/>
        </clipPath>
        <clipPath id="clip1_814_636">
            <rect width="15" height="15" fill="white" transform="translate(35 8)"/>
        </clipPath>
    </defs>
</svg>
