<svg width="76" height="66" viewBox="0 0 76 66" fill="none" xmlns="http://www.w3.org/2000/svg">
    <path d="M75.5093 13.2438L58.2261 0.597493C57.9413 0.387767 57.5778 0.315922 57.2346 0.401513L36.4722 5.66789C35.8366 5.82986 35.4527 6.47633 35.6147 7.11174C35.6826 7.37815 35.8409 7.61281 36.0625 7.77549L41.5603 11.789L40.3728 17.8093C39.7256 21.1697 45.1225 26.4895 52.3956 27.9025C53.6712 28.1488 54.9674 28.2721 56.2666 28.2706C58.2583 28.2831 60.239 27.9743 62.1325 27.3563C65.0418 26.3886 66.9831 24.7736 67.3217 23.0459L68.5092 17.0434L75.1053 15.3751C75.7409 15.2131 76.1248 14.5666 75.9628 13.9312C75.8949 13.6648 75.7366 13.4301 75.515 13.2675L75.5093 13.2438ZM65.0063 22.5889C64.8697 23.2836 63.5815 24.37 61.3905 25.1004C58.6241 25.9663 55.6847 26.1256 52.841 25.5635C46.1616 24.2632 42.4331 19.745 42.7478 18.2608L43.7037 13.3389L53.3457 20.416C53.5488 20.5656 53.7941 20.6467 54.0463 20.6475C54.1468 20.6482 54.2468 20.6342 54.3432 20.606L65.9563 17.6672L65.0063 22.5889ZM54.3194 18.1716L39.5061 7.34215L57.2761 2.8417L72.0715 13.6652L54.3194 18.1716Z" fill="url(#paint0_linear_77_1881)"/>
    <path d="M29.0328 28.4962C28.6695 28.7059 28.4438 29.0919 28.4391 29.5115V50.6954C28.4438 51.1149 28.6695 51.5008 29.0328 51.7107C29.2114 51.8211 29.4167 51.8806 29.6266 51.8829C29.8185 51.8846 30.0079 51.8398 30.1787 51.7522L50.4246 41.1543C51.005 40.8489 51.2279 40.1309 50.9225 39.5506C50.8107 39.338 50.637 39.1644 50.4246 39.0526L30.1965 28.4547C29.8281 28.2644 29.387 28.2801 29.0328 28.4962ZM30.8141 31.4648L47.3135 40.1034L30.8319 48.736L30.8141 31.4648Z" fill="url(#paint1_linear_77_1881)"/>
    <path d="M72.4338 58.5089H66.3363C66.4419 58.1768 66.4959 57.8303 66.4966 57.4818V30.0103C66.4966 29.3545 65.9649 28.8228 65.3091 28.8228C64.6533 28.8228 64.1216 29.3545 64.1216 30.0103V57.4817C64.1118 58.0587 63.6361 58.5186 63.0591 58.5088C63.0589 58.5088 63.0589 58.5088 63.0588 58.5088H10.5622C9.9852 58.5187 9.50935 58.059 9.49943 57.482C9.49943 57.4818 9.49943 57.4818 9.49943 57.4817V21.5379C9.50921 20.9608 9.98492 20.501 10.5619 20.5108H10.5622H36.8105C37.4663 20.5108 37.998 19.9791 37.998 19.3233C37.998 18.6674 37.4663 18.1358 36.8105 18.1358H10.5622C8.67484 18.1292 7.13761 19.6505 7.12458 21.5377V57.4815C7.12528 57.8301 7.17927 58.1765 7.28485 58.5086H1.1875C0.531683 58.5086 0 59.0403 0 59.6961V59.993C0 62.6647 2.10179 65.6334 4.92189 65.6334H68.6993C71.5194 65.6334 73.6212 62.6647 73.6212 59.993V59.6961C73.6212 59.0406 73.0895 58.5089 72.4338 58.5089ZM68.6993 63.2586H4.92189C3.8948 63.2586 2.84986 62.1662 2.49956 60.8838H71.1216C70.7713 62.1662 69.7264 63.2586 68.6993 63.2586Z" fill="url(#paint2_linear_77_1881)"/>
    <defs>
        <linearGradient id="paint0_linear_77_1881" x1="55.7887" y1="0.366211" x2="55.7887" y2="28.271" gradientUnits="userSpaceOnUse">
            <stop stop-color="#FF10BE"/>
            <stop offset="1" stop-color="#FF67F2"/>
        </linearGradient>
        <linearGradient id="paint1_linear_77_1881" x1="39.7492" y1="28.3223" x2="39.7492" y2="51.8829" gradientUnits="userSpaceOnUse">
            <stop stop-color="#FF10BE"/>
            <stop offset="1" stop-color="#FF67F2"/>
        </linearGradient>
        <linearGradient id="paint2_linear_77_1881" x1="36.8106" y1="18.1357" x2="36.8106" y2="65.6334" gradientUnits="userSpaceOnUse">
            <stop stop-color="#FF10BE"/>
            <stop offset="1" stop-color="#FF67F2"/>
        </linearGradient>
    </defs>
</svg>

