<svg width="16" height="17" viewBox="0 0 16 17" fill="none" xmlns="http://www.w3.org/2000/svg">
    <g clip-path="url(#clip0_88_4956)">
        <path d="M14.6345 16.7696H14.6088C12.9454 16.8442 10.8723 16.007 8.13379 14.2022C7.95989 14.0888 7.78297 13.9692 7.60303 13.8465C7.60303 13.8465 8.7447 11.7186 8.88381 11.3613L8.97001 11.4203C9.12122 11.5275 9.27244 11.6316 9.42365 11.731L9.62779 11.863C11.9353 13.379 13.2872 13.8387 14.0327 13.949C14.7782 14.0593 15.0171 13.8636 15.2212 13.7067L15.7006 14.3684C15.8603 14.5838 15.9601 14.8397 15.9894 15.1089C16.0188 15.378 15.9765 15.6503 15.8671 15.8967C15.7577 16.1431 15.5853 16.3544 15.3682 16.5081C15.1512 16.6619 14.8976 16.7522 14.6345 16.7696Z" fill="url(#paint0_linear_88_4956)"/>
        <path d="M6.40086 10.2197C6.15778 10.8326 5.8754 11.4283 5.55558 12.0028C5.3977 12.2914 5.21285 12.5634 5.00364 12.8152C4.46303 12.7814 3.92452 12.9098 3.45369 13.1848C3.31783 13.2666 3.19151 13.364 3.07717 13.4753C3.02905 13.5232 2.99306 13.5825 2.97233 13.6479C2.95161 13.7134 2.94677 13.7831 2.95825 13.8509C2.96973 13.9188 2.99717 13.9827 3.03819 14.0371C3.07921 14.0916 3.13256 14.1349 3.1936 14.1633C3.23315 14.1807 3.2749 14.1922 3.3176 14.1975C3.22536 14.1975 1.95667 14.2348 1.81907 12.9177C1.76463 12.3942 1.89165 11.6564 2.33924 10.6236C2.76996 10.4018 3.22768 10.2404 3.70017 10.1436C4.59448 9.9595 5.51774 9.98552 6.40086 10.2197Z" fill="url(#paint1_linear_88_4956)"/>
        <path d="M11.5967 2.53796C11.6089 2.80628 11.5814 3.07495 11.515 3.33477C11.4273 3.67958 11.3336 4.04925 11.2292 4.43755C10.892 5.68945 10.4731 7.12928 9.97111 8.57067C9.61525 9.59787 9.25284 10.5298 8.88388 11.3665C8.74476 11.7222 7.60309 13.8516 7.60309 13.8516C7.26962 14.4009 6.88852 14.9182 6.46445 15.3971C5.39536 16.5791 4.2673 17.1056 3.06817 16.986C0.845319 16.767 0.246508 15.3753 0.0922695 14.7867C-0.252499 13.4757 0.382601 11.9909 1.70573 11.0217C1.90924 10.8742 2.12303 10.7424 2.34537 10.6271C0.765175 14.271 3.1967 14.2073 3.32372 14.1995C3.66093 14.2337 4.25067 13.8889 4.99767 12.8172C5.70686 11.9986 6.39489 10.2217 6.39489 10.2217C6.71697 9.48707 7.05418 8.63125 7.40046 7.63408C8.13101 5.4841 8.74935 3.29561 9.25284 1.07794C9.33903 0.703609 9.40405 0.41005 9.44186 0.225217C9.47059 0.0838734 9.48722 0.00310644 9.48873 0C10.0652 0.121269 10.5857 0.436859 10.9676 0.896666C11.3495 1.35647 11.5709 1.93414 11.5967 2.53796Z" fill="url(#paint2_linear_88_4956)"/>
        <path opacity="0.34" d="M3.31766 14.1979C3.19064 14.1979 0.759112 14.2662 2.3393 10.6255C2.77001 10.4037 3.22774 10.2423 3.70023 10.1455C3.24659 10.8165 1.45621 13.6138 3.19518 14.1652C3.23298 14.1761 3.27381 14.1885 3.31766 14.1979Z" fill="url(#paint3_linear_88_4956)"/>
        <path opacity="0.29" d="M5.5556 12.0032C5.39773 12.2917 5.21288 12.5638 5.00367 12.8155C4.46305 12.7818 3.92454 12.9102 3.45372 13.1852C3.31786 13.267 3.19153 13.3644 3.0772 13.4757C3.02908 13.5236 2.99308 13.5829 2.97236 13.6483C2.95163 13.7138 2.9468 13.7835 2.95828 13.8513C2.96975 13.9192 2.9972 13.9831 3.03822 14.0375C3.07924 14.092 3.13259 14.1353 3.19363 14.1637C3.23318 14.1811 3.27493 14.1926 3.31763 14.1979C3.22539 14.1979 1.9567 14.2352 1.81909 12.9181C2.0822 12.3309 2.95018 11.7252 5.5556 12.0032Z" fill="url(#paint4_linear_88_4956)"/>
        <path opacity="0.49" d="M14.6738 15.6266C12.9454 15.8813 10.281 12.6832 9.63232 11.8662C10.1616 12.2141 10.6409 12.5061 11.0749 12.7515C12.5296 13.5763 13.4641 13.8668 14.0372 13.9522C14.7509 14.0578 15.0095 13.8761 15.2106 13.7208L15.2257 13.7099L15.7051 14.3716C15.8094 14.9074 15.6673 15.4806 14.6738 15.6266Z" fill="url(#paint5_linear_88_4956)"/>
        <path opacity="0.38" d="M14.9324 14.8239C14.2202 15.1967 12.265 13.7367 11.075 12.752C12.5296 13.5767 13.4641 13.8672 14.0372 13.9526C14.751 14.0582 15.0096 13.8765 15.2107 13.7212C15.374 14.1421 15.3861 14.5863 14.9324 14.8239Z" fill="url(#paint6_linear_88_4956)"/>
        <path opacity="0.34" d="M9.42819 11.7345C9.09249 12.4102 8.57383 13.4275 8.13379 14.2041C7.95989 14.0907 7.78297 13.9711 7.60303 13.8484C7.60303 13.8484 8.7447 11.7205 8.88381 11.3633L8.97001 11.4223C9.12727 11.531 9.27848 11.6351 9.42819 11.7345Z" fill="url(#paint7_linear_88_4956)"/>
        <path opacity="0.24" d="M11.5967 2.53778C11.609 2.8061 11.5814 3.07477 11.515 3.33459C11.1461 4.80083 10.6244 6.68333 9.97114 8.57049C9.61528 9.59769 9.25287 10.5296 8.88391 11.3663C8.74479 11.722 7.60312 13.8514 7.60312 13.8514C7.26965 14.4008 6.88855 14.918 6.46448 15.3969C8.00838 12.2905 9.55681 7.18347 10.139 4.72627C10.6834 2.43527 9.79724 1.45519 9.24834 1.08087C9.39955 0.41764 9.48121 0.0138022 9.48423 0.00292969C10.061 0.123148 10.5822 0.437885 10.9649 0.897148C11.3477 1.35641 11.57 1.93386 11.5967 2.53778Z" fill="url(#paint8_linear_88_4956)"/>
        <path opacity="0.24" d="M11.5966 2.53796C11.6089 2.80628 11.5813 3.07495 11.5149 3.33476C11.4272 3.67958 11.3335 4.04925 11.2291 4.43755C11.5558 1.59671 10.1177 0.554499 9.43726 0.225217C9.46599 0.0838734 9.48262 0.00310644 9.48413 0C10.0614 0.120352 10.5829 0.435546 10.9657 0.895436C11.3485 1.35533 11.5706 1.93349 11.5966 2.53796Z" fill="url(#paint9_linear_88_4956)"/>
    </g>
    <defs>
        <linearGradient id="paint0_linear_88_4956" x1="15.6622" y1="16.0077" x2="7.71804" y2="12.3963" gradientUnits="userSpaceOnUse">
            <stop stop-color="#1A00AA"/>
            <stop offset="1" stop-color="#973BFF"/>
        </linearGradient>
        <linearGradient id="paint1_linear_88_4956" x1="8.0331" y1="10.5572" x2="1.38691" y2="12.7692" gradientUnits="userSpaceOnUse">
            <stop stop-color="#A34FFF"/>
            <stop offset="1" stop-color="#4D00A5"/>
        </linearGradient>
        <linearGradient id="paint2_linear_88_4956" x1="10.3257" y1="2.57303" x2="0.510967" y2="18.158" gradientUnits="userSpaceOnUse">
            <stop stop-color="#FF0FBD"/>
            <stop offset="1" stop-color="#FF8AEE"/>
        </linearGradient>
        <linearGradient id="paint3_linear_88_4956" x1="3.80812" y1="15.2611" x2="2.10572" y2="9.61202" gradientUnits="userSpaceOnUse">
            <stop/>
            <stop offset="1" stop-opacity="0"/>
        </linearGradient>
        <linearGradient id="paint4_linear_88_4956" x1="2.83426" y1="15.2114" x2="4.04349" y2="11.5143" gradientUnits="userSpaceOnUse">
            <stop/>
            <stop offset="1" stop-opacity="0"/>
        </linearGradient>
        <linearGradient id="paint5_linear_88_4956" x1="17.0361" y1="16.8916" x2="10.4891" y2="11.731" gradientUnits="userSpaceOnUse">
            <stop stop-color="white"/>
            <stop offset="1" stop-color="white" stop-opacity="0"/>
        </linearGradient>
        <linearGradient id="paint6_linear_88_4956" x1="11.2486" y1="11.8242" x2="15.3376" y2="14.7569" gradientUnits="userSpaceOnUse">
            <stop stop-color="white"/>
            <stop offset="1" stop-color="white" stop-opacity="0"/>
        </linearGradient>
        <linearGradient id="paint7_linear_88_4956" x1="7.77298" y1="15.1742" x2="9.00461" y2="11.4097" gradientUnits="userSpaceOnUse">
            <stop/>
            <stop offset="1" stop-opacity="0"/>
        </linearGradient>
        <linearGradient id="paint8_linear_88_4956" x1="9.43467" y1="-0.420546" x2="9.0149" y2="8.84197" gradientUnits="userSpaceOnUse">
            <stop stop-color="white"/>
            <stop offset="1" stop-color="white" stop-opacity="0"/>
        </linearGradient>
        <linearGradient id="paint9_linear_88_4956" x1="8.43534" y1="-0.248251" x2="11.8394" y2="3.28921" gradientUnits="userSpaceOnUse">
            <stop stop-color="white"/>
            <stop offset="1" stop-color="white" stop-opacity="0"/>
        </linearGradient>
        <clipPath id="clip0_88_4956">
            <rect width="16" height="17" fill="white"/>
        </clipPath>
    </defs>
</svg>
